<?xml version="1.0" encoding="UTF-8" standalone="no"?>
<svg
   xmlns:dc="http://purl.org/dc/elements/1.1/"
   xmlns:cc="http://creativecommons.org/ns#"
   xmlns:rdf="http://www.w3.org/1999/02/22-rdf-syntax-ns#"
   xmlns:svg="http://www.w3.org/2000/svg"
   xmlns="http://www.w3.org/2000/svg"
   viewBox="0 0 182.66667 162.66667"
   height="162.66667"
   width="182.66667"
   xml:space="preserve"
   id="svg2"
   version="1.1"><metadata
     id="metadata8"><rdf:RDF><cc:Work
         rdf:about=""><dc:format>image/svg+xml</dc:format><dc:type
           rdf:resource="http://purl.org/dc/dcmitype/StillImage" /></cc:Work></rdf:RDF></metadata><defs
     id="defs6" /><g
     transform="matrix(1.3333333,0,0,-1.3333333,0,162.66667)"
     id="g10"><g
       transform="scale(0.1)"
       id="g12"><path
         id="path14"
         style="fill:#d9dee3;fill-opacity:1;fill-rule:evenodd;stroke:none"
         d="M 385.738,422.23 C 272.891,417.109 180.98,406.988 110.039,391.91 38.7891,376.52 2.10938,358.441 0,337.578 3.62891,312.809 53.1211,292.301 148.52,276.02 c 95.07,-16.329 214.449,-24.77 358.121,-25.36 143.359,0.59 262.769,9.031 358.129,25.36 95.39,16.601 144.88,37.14 148.51,61.558 -1.52,17.543 -27.928,33.043 -79.221,46.641 C 861.02,336.211 777.852,311.48 684.57,309.961 567.77,312.379 468.16,349.801 385.738,422.23" /><path
         id="path16"
         style="fill:#2387c2;fill-opacity:1;fill-rule:evenodd;stroke:none"
         d="m 826.289,428.59 c 74.531,-1.828 142.191,11.332 202.851,39.379 71.21,82.109 108.05,181.09 110.47,297.031 -4.53,146.988 -60.39,264.53 -167.54,352.66 -35.308,24.18 -74.57,38.63 -117.691,43.47 -63.988,5.16 -118.207,-10.97 -162.539,-48.43 -44.418,-37.11 -68.399,-87.97 -72,-152.579 0,-68.832 23.051,-128.281 69.262,-178.359 46.488,-50.121 105.039,-78.211 175.668,-84.223 85.742,-1.519 149.41,29.57 191.05,93.281 -45.27,-80.308 -119.371,-120.16 -222.3,-119.57 -79.379,6.641 -144.731,38.051 -196.02,94.18 -51.602,55.82 -76.84,122.379 -75.621,199.691 4.84,71.519 32.141,127.809 81.949,168.859 49.801,41.06 110.313,58.52 181.563,52.5 20.507,-2.1 40.429,-6.48 59.73,-13.08 -61.25,30.43 -128.09,46.01 -200.551,46.6 -38.32,0 -75.308,-4.53 -110.941,-13.59 C 502.422,1150.9 462.578,1072.85 454.141,972.34 451.09,863.09 485.82,768.441 558.281,688.48 c 72.699,-80 165.508,-124.218 278.438,-132.699 122.23,-0.859 215.511,41.84 279.761,128.168 C 1083.59,633.238 1039.84,593.551 985.199,564.84 930.59,536.211 868.551,522.891 799.102,525.039 675.66,534.059 574.73,582.07 496.211,668.98 c -78.441,86.961 -115.121,189.891 -110,308.79 5.43,67 25.348,125.24 59.769,174.77 -54.96,-34.1 -100.82,-77.89 -137.66,-131.29 -0.59,-6.33 -1.172,-12.54 -1.8,-18.55 -8.122,-150.938 37.152,-281.919 135.82,-393.009 99.031,-110.781 227,-171.14 383.949,-181.101" /><path
         id="path18"
         style="fill:#235797;fill-opacity:1;fill-rule:evenodd;stroke:none"
         d="M 783.281,393.711 C 643.52,400.66 524.449,447.301 426.051,533.629 327.66,620.23 265.199,727.23 238.629,854.609 232.578,825.66 229.57,795.738 229.57,765 233.75,624.02 285.82,509.648 385.738,421.801 468.16,349.648 567.77,312.379 684.57,309.961 c 93.282,1.211 176.45,25.98 249.489,74.258 22.312,14.761 43.281,31.402 62.929,49.801 -63.976,-28.668 -135.226,-42.11 -213.707,-40.309" /><path
         id="path20"
         style="fill:#274581;fill-opacity:1;fill-rule:nonzero;stroke:none"
         d="m 188.629,45.1992 v 53.2813 c 0,0 -0.231,0.3515 -0.617,1.0898 -18.992,0.3906 -33.871,0.6287 -44.692,0.6287 -31.172,0 -46.7184,-0.4685 -46.7184,-1.4099 v -52.5 c 0,-11.6797 0.9375,-21.0586 2.8086,-28.1289 0.3906,-1.3594 3.2108,-2.7305 8.4418,-4.0586 5.199,-1.3711 8.828,-2.0313 10.937,-2.0313 0.621,0 0.981,-1.2109 1.09,-3.58983 0.082,-2.42969 -0.078,-4.14063 -0.469,-5.16016 -20.2303,1.01953 -31.9491,1.5586 -35.1483,1.5586 -1.0625,0 -13.2109,-0.53907 -36.4101,-1.5586 -0.7422,0.85938 -1.0899,2.33985 -1.0899,4.53125 0,2.80864 0.3477,4.21874 1.0899,4.21874 2.6992,0 6.5976,0.6289 11.7187,1.8789 5.0781,1.25 7.9688,2.6524 8.5899,4.211 1.4492,5.3906 2.1914,14.4218 2.1914,27.039 V 162.539 c 0,12.5 -0.7422,21.481 -2.1914,27.031 -0.6211,1.559 -3.5118,2.969 -8.5899,4.219 -5.1211,1.332 -9.0195,2.031 -11.7187,2.031 -0.7422,0 -1.0899,1.328 -1.0899,4.059 0,2.391 0.3477,3.992 1.0899,4.851 2.6992,-0.242 8.0468,-0.589 16.0976,-1.101 8.1211,-0.539 14.8789,-0.777 20.3125,-0.777 4.0586,0 7.9688,0.078 11.7188,0.308 3.8203,0.199 7.9995,0.469 12.4995,0.789 4.45,0.313 8.122,0.539 10.93,0.781 0.391,-0.859 0.551,-2.582 0.469,-5.16 -0.109,-2.5 -0.469,-3.75 -1.09,-3.75 -2.109,0 -5.738,-0.738 -10.937,-2.191 -5.231,-1.359 -8.0512,-2.731 -8.4418,-4.059 -1.8711,-7.109 -2.8086,-16.48 -2.8086,-28.121 v -45.16 l 0.6289,-0.937 c 19.7575,-0.43 35.1485,-0.622 46.0895,-0.622 11.641,0 26.559,0.192 44.692,0.622 0.386,0.386 0.617,0.82 0.617,1.25 v 45.937 c 0,12.5 -0.699,21.481 -2.027,27.031 -0.622,1.559 -3.551,2.969 -8.75,4.219 -5.122,1.332 -8.981,2.031 -11.563,2.031 -0.859,0 -1.25,1.25 -1.25,3.75 0,2.578 0.391,4.301 1.25,5.16 2.383,-0.242 7.691,-0.589 15.941,-1.101 8.321,-0.539 15.192,-0.777 20.622,-0.777 3.828,0 7.699,0.078 11.558,0.308 3.828,0.199 7.891,0.469 12.192,0.789 4.378,0.313 7.968,0.539 10.777,0.781 0.391,-1.25 0.633,-2.781 0.633,-4.531 0,-2.929 -0.434,-4.379 -1.25,-4.379 -1.992,0 -5.633,-0.738 -10.942,-2.191 -5.23,-1.359 -8.05,-2.731 -8.441,-4.059 -1.559,-6.25 -2.34,-15.621 -2.34,-28.121 V 46.2891 c 0,-12.5 0.781,-21.8789 2.34,-28.1289 0.391,-1.3594 3.211,-2.7305 8.441,-4.0586 5.309,-1.3711 8.95,-2.0313 10.942,-2.0313 0.816,0 1.25,-1.5195 1.25,-4.53124 0,-1.55859 -0.242,-2.96875 -0.633,-4.21875 -20.109,1.01953 -31.641,1.5586 -34.527,1.5586 -1.172,0 -13.364,-0.53907 -36.563,-1.5586 -0.859,0.85938 -1.25,2.5 -1.25,5 0,2.49999 0.391,3.74999 1.25,3.74999 2.582,0 6.441,0.6289 11.563,1.8789 5.199,1.25 8.128,2.6524 8.75,4.211 1.328,5.3906 2.027,14.4218 2.027,27.039 z M 317.66,125.039 c -10.551,0 -18.558,-4.488 -24.07,-13.437 -5.539,-8.981 -8.281,-16.4028 -8.281,-22.3403 0,-1.3711 0.55,-2.0312 1.722,-2.0312 h 59.059 c 1.019,0 1.57,0.9687 1.57,2.9687 0,6.4414 -2.781,13.8208 -8.281,22.1798 -5.43,8.441 -12.66,12.66 -21.719,12.66 z m 2.961,11.25 c 9.258,0 17.43,-1.801 24.539,-5.309 7.07,-3.558 12.5,-8.128 16.25,-13.75 3.75,-5.55 6.442,-11.179 8.121,-16.878 1.758,-5.7426 2.66,-11.4028 2.66,-17.0317 0,-4.0586 -0.632,-6.5586 -1.882,-7.5 -1.25,-0.8594 -3.547,-1.25 -6.868,-1.25 h -76.41 c -1.562,0 -2.34,-0.5508 -2.34,-1.5586 0,-12.7422 3.789,-24.4609 11.399,-35.1601 7.699,-10.7422 18.832,-16.0899 33.441,-16.0899 4.141,0 8.168,0.3867 12.028,1.25 3.832,0.8203 7.113,1.7578 9.851,2.8086 2.692,1.1289 5,2.2695 6.871,3.4414 1.949,1.1289 3.668,2.1875 5.16,3.1172 l 2.028,1.5703 c 1.25,0 1.871,-1.3281 1.871,-3.9101 0,-1.6797 -0.621,-3.5196 -1.871,-5.4688 C 361.41,18.9492 355.391,13.832 347.5,9.26172 339.691,4.64844 331.129,2.37891 321.879,2.37891 c -16.801,0 -31.18,6.29297 -43.129,18.91019 -11.988,12.6914 -17.969,28.1211 -17.969,46.25 0,21.1328 5.668,37.8519 17.028,50.1599 11.453,12.383 25.711,18.59 42.812,18.59 z" /><path
         id="path22"
         style="fill:#274581;fill-opacity:1;fill-rule:nonzero;stroke:none"
         d="m 477.191,136.91 c 14.137,0 24.059,-5.07 29.688,-15.148 5.621,-10.121 8.43,-26.4925 8.43,-49.0628 v -27.5 c 0,-11.8008 0.82,-20.789 2.5,-27.039 0.312,-1.3594 2.851,-2.7305 7.66,-4.0586 4.883,-1.3711 8.359,-2.0313 10.472,-2.0313 0.618,0 0.969,-1.2109 1.09,-3.58983 0.199,-2.42969 0.16,-4.14063 -0.152,-5.16016 -20.238,1.01953 -31.059,1.5586 -32.5,1.5586 -0.43,0 -11.02,-0.53907 -31.719,-1.5586 -0.859,0.85938 -1.25,2.5 -1.25,5 0,2.49999 0.391,3.74999 1.25,3.74999 2.379,0 5.699,0.6602 10,2.0313 4.371,1.3281 6.75,2.6992 7.18,4.0586 1.449,5.8203 2.191,12.8906 2.191,21.25 v 30.3203 c 0,18.75 -2.461,31.4805 -7.34,38.2815 -4.812,6.867 -12.66,10.308 -23.601,10.308 -6.481,0 -12.649,-2.422 -18.59,-7.191 -5.941,-4.68 -8.91,-8.899 -8.91,-12.6485 V 45.1992 c 0,-11.8008 0.789,-20.789 2.351,-27.039 0.387,-1.3594 3.008,-2.7305 7.809,-4.0586 4.879,-1.3711 8.359,-2.0313 10.469,-2.0313 0.511,0 0.859,-1.2109 1.09,-3.58983 0.203,-2.42969 0.082,-4.14063 -0.309,-5.16016 -20.121,1.01953 -30.898,1.5586 -32.34,1.5586 -1.18,0 -12.148,-0.53907 -32.969,-1.5586 -0.863,0.85938 -1.25,2.5 -1.25,5 0,2.49999 0.387,3.74999 1.25,3.74999 2.379,0 5.93,0.6602 10.618,2.0313 4.769,1.3281 7.39,2.6992 7.812,4.0586 1.449,5.8203 2.188,12.8906 2.188,21.25 v 57.1914 c 0,7.8864 -1.399,13.3594 -4.219,16.4104 -2.11,2.379 -4.61,3.976 -7.5,4.84 -2.93,0.937 -5.391,1.41 -7.34,1.41 -1.871,0 -2.809,0.187 -2.809,0.617 0,4.891 0.618,7.422 1.868,7.66 21.332,3.199 35.242,5.82 41.722,7.813 0.199,0 0.508,0.039 0.938,0.16 0.39,0.078 0.621,0.148 0.621,0.148 0.82,0 1.332,-0.89 1.57,-2.648 0.192,-1.68 0.192,-2.93 0,-3.75 -0.859,-5.633 -1.25,-9.653 -1.25,-12.032 0,-0.859 0.192,-1.25 0.621,-1.25 0.199,0 0.508,0.192 0.938,0.622 4.57,4.769 10.82,9.378 18.75,13.75 8.011,4.378 15.66,6.558 22.972,6.558 z" /><path
         id="path24"
         style="fill:#274581;fill-opacity:1;fill-rule:nonzero;stroke:none"
         d="M 570.781,39.4102 V 170.512 c 0,6.867 -0.621,13.32 -1.871,19.367 -1.058,3.211 -6.211,4.851 -15.469,4.851 h -2.66 c -1.25,0 -1.871,1.09 -1.871,3.282 0,3.199 0.621,4.84 1.871,4.84 6.02,0.628 11.598,1.41 16.719,2.347 5.199,1.012 9.262,2.071 12.191,3.121 2.887,1.02 5.348,1.95 7.34,2.809 2.071,0.941 3.59,1.723 4.528,2.351 l 1.25,0.93 h 0.632 c 0.821,0 1.598,-0.582 2.34,-1.711 0.821,-1.179 1.328,-2.187 1.559,-3.129 -2.18,-6.48 -3.281,-15.269 -3.281,-26.41 V 45.1992 c 0,-11.8008 0.781,-20.789 2.351,-27.039 0.391,-1.3594 3,-2.7305 7.809,-4.0586 4.883,-1.3711 8.359,-2.0313 10.472,-2.0313 0.508,0 0.86,-1.2109 1.09,-3.58983 0.199,-2.42969 0.078,-4.14063 -0.312,-5.16016 -20.117,1.01953 -30.899,1.5586 -32.348,1.5586 -1.242,0 -12.262,-0.53907 -32.961,-1.5586 -0.859,0.85938 -1.25,2.5 -1.25,5 0,2.49999 0.391,3.74999 1.25,3.74999 2.379,0 5.93,0.6602 10.621,2.0313 4.77,1.3281 7.379,2.6992 7.809,4.0586 1.449,5.8203 2.191,12.8906 2.191,21.25 z" /><path
         id="path26"
         style="fill:#274581;fill-opacity:1;fill-rule:nonzero;stroke:none"
         d="m 688.789,125.039 c -10.551,0 -18.559,-4.488 -24.059,-13.437 -5.55,-8.981 -8.281,-16.4028 -8.281,-22.3403 0,-1.3711 0.539,-2.0312 1.711,-2.0312 h 59.07 c 1.008,0 1.559,0.9687 1.559,2.9687 0,6.4414 -2.769,13.8208 -8.277,22.1798 -5.434,8.441 -12.66,12.66 -21.723,12.66 z m 2.973,11.25 c 9.258,0 17.418,-1.801 24.527,-5.309 7.07,-3.558 12.5,-8.128 16.25,-13.75 3.75,-5.55 6.441,-11.179 8.121,-16.878 1.762,-5.7426 2.66,-11.4028 2.66,-17.0317 0,-4.0586 -0.621,-6.5586 -1.871,-7.5 -1.25,-0.8594 -3.558,-1.25 -6.879,-1.25 h -76.41 c -1.558,0 -2.34,-0.5508 -2.34,-1.5586 0,-12.7422 3.789,-24.4609 11.41,-35.1601 7.692,-10.7422 18.821,-16.0899 33.43,-16.0899 4.141,0 8.168,0.3867 12.039,1.25 3.821,0.8203 7.102,1.7578 9.84,2.8086 2.691,1.1289 5,2.2695 6.871,3.4414 1.961,1.1289 3.68,2.1875 5.16,3.1172 l 2.032,1.5703 c 1.25,0 1.878,-1.3281 1.878,-3.9101 0,-1.6797 -0.628,-3.5196 -1.878,-5.4688 C 732.539,18.9492 726.52,13.832 718.629,9.26172 710.82,4.64844 702.27,2.37891 693.012,2.37891 c -16.801,0 -31.172,6.29297 -43.133,18.91019 -11.988,12.6914 -17.969,28.1211 -17.969,46.25 0,21.1328 5.668,37.8519 17.039,50.1599 11.442,12.383 25.699,18.59 42.813,18.59 z" /><path
         id="path28"
         style="fill:#274581;fill-opacity:1;fill-rule:nonzero;stroke:none"
         d="m 818.98,125.039 c -10.539,0 -18.55,-4.488 -24.058,-13.437 -5.543,-8.981 -8.281,-16.4028 -8.281,-22.3403 0,-1.3711 0.55,-2.0312 1.718,-2.0312 h 59.063 c 1.019,0 1.558,0.9687 1.558,2.9687 0,6.4414 -2.769,13.8208 -8.281,22.1798 -5.429,8.441 -12.648,12.66 -21.719,12.66 z m 2.969,11.25 c 9.262,0 17.43,-1.801 24.531,-5.309 7.071,-3.558 12.5,-8.128 16.25,-13.75 3.75,-5.55 6.45,-11.179 8.129,-16.878 1.762,-5.7426 2.661,-11.4028 2.661,-17.0317 0,-4.0586 -0.629,-6.5586 -1.879,-7.5 -1.25,-0.8594 -3.551,-1.25 -6.871,-1.25 h -76.411 c -1.558,0 -2.339,-0.5508 -2.339,-1.5586 0,-12.7422 3.781,-24.4609 11.402,-35.1601 7.699,-10.7422 18.828,-16.0899 33.437,-16.0899 4.141,0 8.161,0.3867 12.032,1.25 3.828,0.8203 7.109,1.7578 9.839,2.8086 2.7,1.1289 5,2.2695 6.879,3.4414 1.95,1.1289 3.672,2.1875 5.161,3.1172 l 2.031,1.5703 c 1.25,0 1.871,-1.3281 1.871,-3.9101 0,-1.6797 -0.621,-3.5196 -1.871,-5.4688 C 862.73,18.9492 856.719,13.832 848.828,9.26172 841.02,4.64844 832.461,2.37891 823.199,2.37891 c -16.789,0 -31.168,6.29297 -43.121,18.91019 -11.988,12.6914 -17.969,28.1211 -17.969,46.25 0,21.1328 5.661,37.8519 17.032,50.1599 11.449,12.383 25.699,18.59 42.808,18.59 z" /><path
         id="path30"
         style="fill:#274581;fill-opacity:1;fill-rule:nonzero;stroke:none"
         d="m 999.41,202.852 c 4.07,0 7.97,0.078 11.72,0.308 3.83,0.199 8.01,0.469 12.5,0.789 4.46,0.313 8.13,0.539 10.94,0.781 0.39,-1.25 0.63,-2.781 0.63,-4.531 0,-2.929 -0.43,-4.379 -1.25,-4.379 -2.11,0 -5.75,-0.738 -10.94,-2.191 -5.24,-1.359 -8.05,-2.731 -8.44,-4.059 -1.87,-7.109 -2.81,-16.48 -2.81,-28.121 V 47.2305 c 0,-10.75 0.94,-19.6094 2.81,-26.5703 0.63,-2.1094 7.5,-3.1211 20.63,-3.1211 h 14.53 c 18.75,0 31.44,1.7226 38.12,5.1601 3.01,1.6406 6.33,5.2305 10,10.7813 3.75,5.5 6.76,12.1093 9.06,19.8398 0.39,1.25 1.8,1.8789 4.22,1.8789 3.83,0 6.33,-0.6289 7.5,-1.8789 -0.93,-2.6211 -2.5,-6.8398 -4.68,-12.6601 -2.11,-5.7383 -3.75,-10.3907 -5,-13.8985 -1.18,-3.5625 -2.47,-7.6601 -3.91,-12.3515 -1.37,-4.60942 -2.27,-8.39067 -2.66,-11.39848 -10.54,0 -26.95,0.30859 -49.22,0.9375 -22.3,0.62109 -40.31,0.92969 -54.058,0.92969 L 962.539,3.94922 c -0.629,0.62109 -0.937,2.22266 -0.937,4.83984 0,2.58204 0.308,3.91014 0.937,3.91014 2.813,0 6.723,0.6211 11.723,1.8711 5.078,1.25 8.117,2.7305 9.058,4.5313 1.45,2.3789 2.192,11.8789 2.192,28.4375 V 161.91 c 0,12.891 -0.742,22.11 -2.192,27.66 -0.621,1.559 -3.519,2.969 -8.59,4.219 -5.121,1.332 -9.031,2.031 -11.718,2.031 -0.742,0 -1.102,1.328 -1.102,4.059 0,2.391 0.36,3.992 1.102,4.851 2.687,-0.242 8.039,-0.589 16.09,-1.101 8.128,-0.539 14.878,-0.777 20.308,-0.777 z" /><path
         id="path32"
         style="fill:#274581;fill-opacity:1;fill-rule:nonzero;stroke:none"
         d="m 1146.84,117.539 h -17.5 c -1.06,0 -1.57,2.07 -1.57,6.25 0,1.25 0.08,1.949 0.32,2.191 5.82,2.571 12.18,7.969 19.06,16.09 2.19,2.578 4.3,5.551 6.4,8.91 2.19,3.321 3.95,6.168 5.32,8.59 1.44,2.379 2.18,3.668 2.18,3.91 6.02,0 9.07,-0.55 9.07,-1.57 v -29.84 c 5.31,0 13.28,-0.082 23.9,-0.16 10.71,-0.109 16.41,-0.148 17.03,-0.148 1.57,0 2.35,-0.942 2.35,-2.813 0,-3.679 -1.02,-7.469 -2.97,-11.41 h -40.31 V 43.3203 c 0,-8.1211 2.07,-14.6484 6.25,-19.5312 4.14,-4.8086 9.57,-7.1875 16.25,-7.1875 6.01,0 12.26,1.9179 18.75,5.7773 0.62,0.3906 1.48,-0.4687 2.65,-2.6484 1.25,-2.1094 1.76,-3.211 1.57,-3.2813 -3.05,-3.25 -7.66,-6.48826 -13.91,-9.68748 -6.25,-3.13281 -12.73,-4.69141 -19.38,-4.69141 -10.11,0 -18.55,3.32032 -25.31,9.99999 -6.79,6.6406 -10.15,16.168 -10.15,28.5899 z" /><path
         id="path34"
         style="fill:#274581;fill-opacity:1;fill-rule:nonzero;stroke:none"
         d="m 1292.81,124.73 c -11.79,0 -21.01,-5.281 -27.65,-15.781 -6.68,-10.4295 -10,-22.617 -10,-36.5701 0,-14.6797 3.9,-27.457 11.72,-38.2773 7.89,-10.8633 18.82,-16.25 32.81,-16.25 6.87,0 12.22,1.5586 16.09,4.6875 3.83,3.1211 5.78,7.3398 5.78,12.6601 V 107.23 c 0,4.141 -2.3,8.122 -6.87,11.872 -4.61,3.75 -11.88,5.628 -21.88,5.628 z m 3.91,12.809 c 8.63,0 16.17,-1.719 22.66,-5.16 1.44,0 2.18,1.762 2.18,5.32 v 32.813 c 0,6.867 -0.62,13.32 -1.87,19.367 -1.06,3.211 -6.21,4.851 -15.47,4.851 h -2.66 c -1.25,0 -1.87,1.09 -1.87,3.282 0,3.199 0.62,4.84 1.87,4.84 6.02,0.628 11.6,1.41 16.72,2.347 5.2,1.012 9.26,2.071 12.19,3.121 2.89,1.02 5.35,1.95 7.34,2.809 2.07,0.941 3.6,1.723 4.53,2.351 l 1.25,0.93 h 0.63 c 0.82,0 1.6,-0.582 2.34,-1.711 0.82,-1.179 1.33,-2.187 1.56,-3.129 -2.18,-6.48 -3.28,-15.269 -3.28,-26.41 V 46.9102 c 0,-9.6797 0.55,-17.3399 1.72,-22.961 0.39,-1.4883 1.49,-2.6172 3.28,-3.4375 1.88,-0.7422 3.75,-1.2109 5.63,-1.4101 1.95,-0.2305 3.83,-0.3125 5.62,-0.3125 l 2.82,-0.3086 c 0.62,-0.2422 0.93,-1.4102 0.93,-3.6016 0,-3.0391 -0.62,-4.5273 -1.87,-4.5273 -3.05,-0.2305 -6.41,-0.62113 -10.16,-1.25004 -3.75,-0.62109 -7.3,-1.33203 -10.62,-2.03125 -3.36,-0.62109 -6.41,-1.33203 -9.22,-2.03125 -2.81,-0.73828 -5.12,-1.41015 -6.88,-2.02734 l -2.81,-0.63281 c -1.17,0 -1.72,1.72265 -1.72,5.16015 v 3.75004 c 0,1.1328 -0.43,1.4804 -1.25,1.0898 -11.36,-6.24999 -22.11,-9.36718 -32.19,-9.36718 -16.67,0 -30.7,5.9375 -42.03,17.80858 -11.25,11.9492 -16.87,26.25 -16.87,42.8086 0,19.5703 6.87,36.7621 20.62,51.5701 13.83,14.883 29.46,22.34 46.88,22.34 z" /></g></g></svg>